<svg xmlns="http://www.w3.org/2000/svg" width="900" height="754" viewBox="0 0 900 754" role="img" aria-label="AI Token 用量">
  <style>
    .text { fill: #e6edf3; font-family: -apple-system,BlinkMacSystemFont,"Segoe UI","PingFang SC","Hiragino Sans GB","Microsoft YaHei","Noto Sans SC",sans-serif; }
    .text2 { fill: #c9d1d9; font-family: -apple-system,BlinkMacSystemFont,"Segoe UI","PingFang SC","Hiragino Sans GB","Microsoft YaHei","Noto Sans SC",sans-serif; }
    .muted { fill: #8b949e; font-family: -apple-system,BlinkMacSystemFont,"Segoe UI","PingFang SC","Hiragino Sans GB","Microsoft YaHei","Noto Sans SC",sans-serif; }
    .faint { fill: #57606a; font-family: -apple-system,BlinkMacSystemFont,"Segoe UI","PingFang SC","Hiragino Sans GB","Microsoft YaHei","Noto Sans SC",sans-serif; }
    .track { fill: #21262d; }
    .num { font-variant-numeric: tabular-nums; }
    .h0 { fill: #21262d; }
    .h1 { fill: #4a3a12; }
    .h2 { fill: #7d5a17; }
    .h3 { fill: #b9821d; }
    .h4 { fill: #fbbf24; }
  </style>
  <rect width="900" height="754" rx="14" fill="#0d1117"/>
  <rect x="1" y="1" width="898" height="752" rx="13" fill="none" stroke="#30363d" stroke-width="1"/>
<text x="32" y="46" font-size="11" font-weight="600" class="muted" text-anchor="start" letter-spacing="2">AI TOKEN 使用量</text>
<text x="32" y="92" font-size="42" font-weight="700" class="text num" text-anchor="start">56.3B</text>
<text x="161" y="88" font-size="13" font-weight="600" class="muted" text-anchor="start">tokens</text>
<text x="32" y="114" font-size="11.5" font-weight="400" class="muted" text-anchor="start">359K+ 对话 · 自 2026 年 3 月 起</text>
<text x="868" y="46" font-size="11" font-weight="600" class="muted" text-anchor="end" letter-spacing="2">估算成本</text>
<text x="868" y="88" font-size="30" font-weight="700" class="text num" text-anchor="end">$13.0K</text>
<text x="868" y="114" font-size="11.5" font-weight="400" class="muted" text-anchor="end">LiteLLM 官方定价</text>
<line x1="32" y1="128" x2="868" y2="128" stroke="#21262d" stroke-width="1"/>
<text x="32" y="146" font-size="11" font-weight="600" class="muted" text-anchor="start" letter-spacing="2">TOKEN 活跃热力图</text>
<text x="268" y="162" font-size="9.5" font-weight="500" class="faint" text-anchor="start">3 月</text>
<text x="307" y="162" font-size="9.5" font-weight="500" class="faint" text-anchor="start">4 月</text>
<text x="359" y="162" font-size="9.5" font-weight="500" class="faint" text-anchor="start">5 月</text>
<text x="424" y="162" font-size="9.5" font-weight="500" class="faint" text-anchor="start">6 月</text>
<text x="476" y="162" font-size="9.5" font-weight="500" class="faint" text-anchor="start">7 月</text>
<text x="528" y="162" font-size="9.5" font-weight="500" class="faint" text-anchor="start">8 月</text>
<text x="593" y="162" font-size="9.5" font-weight="500" class="faint" text-anchor="start">9 月</text>
<text x="260" y="191" font-size="9" font-weight="500" class="faint" text-anchor="end">一</text>
<text x="260" y="217" font-size="9" font-weight="500" class="faint" text-anchor="end">三</text>
<text x="260" y="243" font-size="9" font-weight="500" class="faint" text-anchor="end">五</text>
<rect x="268" y="170" width="10" height="10" rx="2" class="h1"/>
<rect x="268" y="183" width="10" height="10" rx="2" class="h0"/>
<rect x="268" y="196" width="10" height="10" rx="2" class="h0"/>
<rect x="268" y="209" width="10" height="10" rx="2" class="h0"/>
<rect x="268" y="222" width="10" height="10" rx="2" class="h0"/>
<rect x="268" y="235" width="10" height="10" rx="2" class="h1"/>
<rect x="268" y="248" width="10" height="10" rx="2" class="h0"/>
<rect x="281" y="170" width="10" height="10" rx="2" class="h0"/>
<rect x="281" y="183" width="10" height="10" rx="2" class="h0"/>
<rect x="281" y="196" width="10" height="10" rx="2" class="h0"/>
<rect x="281" y="209" width="10" height="10" rx="2" class="h0"/>
<rect x="281" y="222" width="10" height="10" rx="2" class="h0"/>
<rect x="281" y="235" width="10" height="10" rx="2" class="h0"/>
<rect x="281" y="248" width="10" height="10" rx="2" class="h0"/>
<rect x="294" y="170" width="10" height="10" rx="2" class="h2"/>
<rect x="294" y="183" width="10" height="10" rx="2" class="h1"/>
<rect x="294" y="196" width="10" height="10" rx="2" class="h3"/>
<rect x="294" y="209" width="10" height="10" rx="2" class="h3"/>
<rect x="294" y="222" width="10" height="10" rx="2" class="h2"/>
<rect x="294" y="235" width="10" height="10" rx="2" class="h1"/>
<rect x="294" y="248" width="10" height="10" rx="2" class="h1"/>
<rect x="307" y="170" width="10" height="10" rx="2" class="h1"/>
<rect x="307" y="183" width="10" height="10" rx="2" class="h1"/>
<rect x="307" y="196" width="10" height="10" rx="2" class="h1"/>
<rect x="307" y="209" width="10" height="10" rx="2" class="h1"/>
<rect x="307" y="222" width="10" height="10" rx="2" class="h1"/>
<rect x="307" y="235" width="10" height="10" rx="2" class="h1"/>
<rect x="307" y="248" width="10" height="10" rx="2" class="h0"/>
<rect x="320" y="170" width="10" height="10" rx="2" class="h0"/>
<rect x="320" y="183" width="10" height="10" rx="2" class="h0"/>
<rect x="320" y="196" width="10" height="10" rx="2" class="h1"/>
<rect x="320" y="209" width="10" height="10" rx="2" class="h1"/>
<rect x="320" y="222" width="10" height="10" rx="2" class="h1"/>
<rect x="320" y="235" width="10" height="10" rx="2" class="h0"/>
<rect x="320" y="248" width="10" height="10" rx="2" class="h0"/>
<rect x="333" y="170" width="10" height="10" rx="2" class="h0"/>
<rect x="333" y="183" width="10" height="10" rx="2" class="h0"/>
<rect x="333" y="196" width="10" height="10" rx="2" class="h0"/>
<rect x="333" y="209" width="10" height="10" rx="2" class="h1"/>
<rect x="333" y="222" width="10" height="10" rx="2" class="h0"/>
<rect x="333" y="235" width="10" height="10" rx="2" class="h0"/>
<rect x="333" y="248" width="10" height="10" rx="2" class="h0"/>
<rect x="346" y="170" width="10" height="10" rx="2" class="h0"/>
<rect x="346" y="183" width="10" height="10" rx="2" class="h0"/>
<rect x="346" y="196" width="10" height="10" rx="2" class="h0"/>
<rect x="346" y="209" width="10" height="10" rx="2" class="h0"/>
<rect x="346" y="222" width="10" height="10" rx="2" class="h0"/>
<rect x="346" y="235" width="10" height="10" rx="2" class="h0"/>
<rect x="346" y="248" width="10" height="10" rx="2" class="h0"/>
<rect x="359" y="170" width="10" height="10" rx="2" class="h0"/>
<rect x="359" y="183" width="10" height="10" rx="2" class="h0"/>
<rect x="359" y="196" width="10" height="10" rx="2" class="h0"/>
<rect x="359" y="209" width="10" height="10" rx="2" class="h0"/>
<rect x="359" y="222" width="10" height="10" rx="2" class="h0"/>
<rect x="359" y="235" width="10" height="10" rx="2" class="h0"/>
<rect x="359" y="248" width="10" height="10" rx="2" class="h0"/>
<rect x="372" y="170" width="10" height="10" rx="2" class="h0"/>
<rect x="372" y="183" width="10" height="10" rx="2" class="h0"/>
<rect x="372" y="196" width="10" height="10" rx="2" class="h0"/>
<rect x="372" y="209" width="10" height="10" rx="2" class="h0"/>
<rect x="372" y="222" width="10" height="10" rx="2" class="h0"/>
<rect x="372" y="235" width="10" height="10" rx="2" class="h0"/>
<rect x="372" y="248" width="10" height="10" rx="2" class="h0"/>
<rect x="385" y="170" width="10" height="10" rx="2" class="h0"/>
<rect x="385" y="183" width="10" height="10" rx="2" class="h0"/>
<rect x="385" y="196" width="10" height="10" rx="2" class="h0"/>
<rect x="385" y="209" width="10" height="10" rx="2" class="h0"/>
<rect x="385" y="222" width="10" height="10" rx="2" class="h0"/>
<rect x="385" y="235" width="10" height="10" rx="2" class="h0"/>
<rect x="385" y="248" width="10" height="10" rx="2" class="h0"/>
<rect x="398" y="170" width="10" height="10" rx="2" class="h0"/>
<rect x="398" y="183" width="10" height="10" rx="2" class="h0"/>
<rect x="398" y="196" width="10" height="10" rx="2" class="h0"/>
<rect x="398" y="209" width="10" height="10" rx="2" class="h0"/>
<rect x="398" y="222" width="10" height="10" rx="2" class="h0"/>
<rect x="398" y="235" width="10" height="10" rx="2" class="h0"/>
<rect x="398" y="248" width="10" height="10" rx="2" class="h0"/>
<rect x="411" y="170" width="10" height="10" rx="2" class="h0"/>
<rect x="411" y="183" width="10" height="10" rx="2" class="h0"/>
<rect x="411" y="196" width="10" height="10" rx="2" class="h0"/>
<rect x="411" y="209" width="10" height="10" rx="2" class="h0"/>
<rect x="411" y="222" width="10" height="10" rx="2" class="h0"/>
<rect x="411" y="235" width="10" height="10" rx="2" class="h0"/>
<rect x="411" y="248" width="10" height="10" rx="2" class="h0"/>
<rect x="424" y="170" width="10" height="10" rx="2" class="h0"/>
<rect x="424" y="183" width="10" height="10" rx="2" class="h0"/>
<rect x="424" y="196" width="10" height="10" rx="2" class="h0"/>
<rect x="424" y="209" width="10" height="10" rx="2" class="h0"/>
<rect x="424" y="222" width="10" height="10" rx="2" class="h0"/>
<rect x="424" y="235" width="10" height="10" rx="2" class="h0"/>
<rect x="424" y="248" width="10" height="10" rx="2" class="h0"/>
<rect x="437" y="170" width="10" height="10" rx="2" class="h0"/>
<rect x="437" y="183" width="10" height="10" rx="2" class="h0"/>
<rect x="437" y="196" width="10" height="10" rx="2" class="h1"/>
<rect x="437" y="209" width="10" height="10" rx="2" class="h0"/>
<rect x="437" y="222" width="10" height="10" rx="2" class="h0"/>
<rect x="437" y="235" width="10" height="10" rx="2" class="h0"/>
<rect x="437" y="248" width="10" height="10" rx="2" class="h0"/>
<rect x="450" y="170" width="10" height="10" rx="2" class="h0"/>
<rect x="450" y="183" width="10" height="10" rx="2" class="h0"/>
<rect x="450" y="196" width="10" height="10" rx="2" class="h0"/>
<rect x="450" y="209" width="10" height="10" rx="2" class="h0"/>
<rect x="450" y="222" width="10" height="10" rx="2" class="h0"/>
<rect x="450" y="235" width="10" height="10" rx="2" class="h0"/>
<rect x="450" y="248" width="10" height="10" rx="2" class="h0"/>
<rect x="463" y="170" width="10" height="10" rx="2" class="h0"/>
<rect x="463" y="183" width="10" height="10" rx="2" class="h0"/>
<rect x="463" y="196" width="10" height="10" rx="2" class="h0"/>
<rect x="463" y="209" width="10" height="10" rx="2" class="h1"/>
<rect x="463" y="222" width="10" height="10" rx="2" class="h1"/>
<rect x="463" y="235" width="10" height="10" rx="2" class="h1"/>
<rect x="463" y="248" width="10" height="10" rx="2" class="h2"/>
<rect x="476" y="170" width="10" height="10" rx="2" class="h2"/>
<rect x="476" y="183" width="10" height="10" rx="2" class="h2"/>
<rect x="476" y="196" width="10" height="10" rx="2" class="h2"/>
<rect x="476" y="209" width="10" height="10" rx="2" class="h2"/>
<rect x="476" y="222" width="10" height="10" rx="2" class="h1"/>
<rect x="476" y="235" width="10" height="10" rx="2" class="h4"/>
<rect x="476" y="248" width="10" height="10" rx="2" class="h4"/>
<rect x="489" y="170" width="10" height="10" rx="2" class="h3"/>
<rect x="489" y="183" width="10" height="10" rx="2" class="h2"/>
<rect x="489" y="196" width="10" height="10" rx="2" class="h1"/>
<rect x="489" y="209" width="10" height="10" rx="2" class="h4"/>
<rect x="489" y="222" width="10" height="10" rx="2" class="h3"/>
<rect x="489" y="235" width="10" height="10" rx="2" class="h1"/>
<rect x="489" y="248" width="10" height="10" rx="2" class="h2"/>
<rect x="502" y="170" width="10" height="10" rx="2" class="h2"/>
<rect x="502" y="183" width="10" height="10" rx="2" class="h1"/>
<rect x="502" y="196" width="10" height="10" rx="2" class="h2"/>
<rect x="502" y="209" width="10" height="10" rx="2" class="h1"/>
<rect x="502" y="222" width="10" height="10" rx="2" class="h0"/>
<rect x="502" y="235" width="10" height="10" rx="2" class="h1"/>
<rect x="502" y="248" width="10" height="10" rx="2" class="h2"/>
<rect x="515" y="170" width="10" height="10" rx="2" class="h2"/>
<rect x="515" y="183" width="10" height="10" rx="2" class="h2"/>
<rect x="515" y="196" width="10" height="10" rx="2" class="h1"/>
<rect x="515" y="209" width="10" height="10" rx="2" class="h0"/>
<rect x="515" y="222" width="10" height="10" rx="2" class="h3"/>
<rect x="515" y="235" width="10" height="10" rx="2" class="h4"/>
<rect x="515" y="248" width="10" height="10" rx="2" class="h1"/>
<rect x="528" y="170" width="10" height="10" rx="2" class="h2"/>
<rect x="528" y="183" width="10" height="10" rx="2" class="h4"/>
<rect x="528" y="196" width="10" height="10" rx="2" class="h4"/>
<rect x="528" y="209" width="10" height="10" rx="2" class="h4"/>
<rect x="528" y="222" width="10" height="10" rx="2" class="h2"/>
<rect x="528" y="235" width="10" height="10" rx="2" class="h2"/>
<rect x="528" y="248" width="10" height="10" rx="2" class="h2"/>
<rect x="541" y="170" width="10" height="10" rx="2" class="h0"/>
<rect x="541" y="183" width="10" height="10" rx="2" class="h2"/>
<rect x="541" y="196" width="10" height="10" rx="2" class="h3"/>
<rect x="541" y="209" width="10" height="10" rx="2" class="h3"/>
<rect x="541" y="222" width="10" height="10" rx="2" class="h3"/>
<rect x="541" y="235" width="10" height="10" rx="2" class="h3"/>
<rect x="541" y="248" width="10" height="10" rx="2" class="h2"/>
<rect x="554" y="170" width="10" height="10" rx="2" class="h4"/>
<rect x="554" y="183" width="10" height="10" rx="2" class="h2"/>
<rect x="554" y="196" width="10" height="10" rx="2" class="h1"/>
<rect x="554" y="209" width="10" height="10" rx="2" class="h2"/>
<rect x="554" y="222" width="10" height="10" rx="2" class="h1"/>
<rect x="554" y="235" width="10" height="10" rx="2" class="h1"/>
<rect x="554" y="248" width="10" height="10" rx="2" class="h0"/>
<rect x="567" y="170" width="10" height="10" rx="2" class="h1"/>
<rect x="567" y="183" width="10" height="10" rx="2" class="h1"/>
<rect x="567" y="196" width="10" height="10" rx="2" class="h2"/>
<rect x="567" y="209" width="10" height="10" rx="2" class="h1"/>
<rect x="567" y="222" width="10" height="10" rx="2" class="h1"/>
<rect x="567" y="235" width="10" height="10" rx="2" class="h2"/>
<rect x="567" y="248" width="10" height="10" rx="2" class="h1"/>
<rect x="580" y="170" width="10" height="10" rx="2" class="h1"/>
<rect x="580" y="183" width="10" height="10" rx="2" class="h1"/>
<rect x="580" y="196" width="10" height="10" rx="2" class="h1"/>
<rect x="580" y="209" width="10" height="10" rx="2" class="h1"/>
<rect x="580" y="222" width="10" height="10" rx="2" class="h0"/>
<rect x="580" y="235" width="10" height="10" rx="2" class="h2"/>
<rect x="580" y="248" width="10" height="10" rx="2" class="h3"/>
<rect x="593" y="170" width="10" height="10" rx="2" class="h3"/>
<rect x="593" y="183" width="10" height="10" rx="2" class="h2"/>
<rect x="593" y="196" width="10" height="10" rx="2" class="h3"/>
<rect x="593" y="209" width="10" height="10" rx="2" class="h3"/>
<rect x="593" y="222" width="10" height="10" rx="2" class="h2"/>
<rect x="593" y="235" width="10" height="10" rx="2" class="h2"/>
<rect x="593" y="248" width="10" height="10" rx="2" class="h3"/>
<rect x="606" y="170" width="10" height="10" rx="2" class="h3"/>
<rect x="606" y="183" width="10" height="10" rx="2" class="h3"/>
<rect x="606" y="196" width="10" height="10" rx="2" class="h3"/>
<rect x="606" y="209" width="10" height="10" rx="2" class="h3"/>
<rect x="606" y="222" width="10" height="10" rx="2" class="h4"/>
<rect x="606" y="235" width="10" height="10" rx="2" class="h3"/>
<rect x="606" y="248" width="10" height="10" rx="2" class="h2"/>
<rect x="619" y="170" width="10" height="10" rx="2" class="h3"/>
<text x="546" y="287" font-size="10" font-weight="500" class="faint" text-anchor="end">少</text>
<rect x="554" y="279" width="8" height="8" rx="1.5" class="h0"/>
<rect x="564" y="279" width="8" height="8" rx="1.5" class="h1"/>
<rect x="574" y="279" width="8" height="8" rx="1.5" class="h2"/>
<rect x="584" y="279" width="8" height="8" rx="1.5" class="h3"/>
<rect x="594" y="279" width="8" height="8" rx="1.5" class="h4"/>
<text x="628" y="287" font-size="10" font-weight="500" class="faint" text-anchor="end">多</text>
<text x="658" y="206" font-size="9.5" font-weight="600" class="faint" text-anchor="start">今日</text>
<text x="658" y="224" font-size="13" font-weight="600" class="text2 num" text-anchor="start">1.3B</text>
<text x="32" y="304" font-size="11" font-weight="600" class="muted" text-anchor="start" letter-spacing="2">按工具</text>
<text x="460" y="304" font-size="11" font-weight="600" class="muted" text-anchor="start" letter-spacing="2">模型榜</text>
<text x="32" y="328" font-size="12" font-weight="500" class="text2" text-anchor="start">Codex</text>
<rect x="104" y="318" width="232" height="10" rx="3" class="track"/>
<rect x="104" y="318" width="113.6" height="10" rx="3" fill="#6c63ff" opacity="0.9"/>
<text x="432" y="328" font-size="11" font-weight="500" class="muted num" text-anchor="end">27.6B (49%)</text>
<text x="32" y="354" font-size="12" font-weight="500" class="text2" text-anchor="start">Zcode</text>
<rect x="104" y="344" width="232" height="10" rx="3" class="track"/>
<rect x="104" y="344" width="63.4" height="10" rx="3" fill="#8b949e" opacity="0.9"/>
<text x="432" y="354" font-size="11" font-weight="500" class="muted num" text-anchor="end">15.4B (27%)</text>
<text x="32" y="380" font-size="12" font-weight="500" class="text2" text-anchor="start">Opencode</text>
<rect x="104" y="370" width="232" height="10" rx="3" class="track"/>
<rect x="104" y="370" width="35.5" height="10" rx="3" fill="#22b8cf" opacity="0.9"/>
<text x="432" y="380" font-size="11" font-weight="500" class="muted num" text-anchor="end">8.6B (15%)</text>
<text x="32" y="406" font-size="12" font-weight="500" class="text2" text-anchor="start">Claude</text>
<rect x="104" y="396" width="232" height="10" rx="3" class="track"/>
<rect x="104" y="396" width="19.1" height="10" rx="3" fill="#51cf66" opacity="0.9"/>
<text x="432" y="406" font-size="11" font-weight="500" class="muted num" text-anchor="end">4.6B (8%)</text>
<text x="32" y="432" font-size="12" font-weight="500" class="text2" text-anchor="start">Workbuddy</text>
<rect x="104" y="422" width="232" height="10" rx="3" class="track"/>
<rect x="104" y="422" width="2.0" height="10" rx="3" fill="#8b949e" opacity="0.9"/>
<text x="432" y="432" font-size="11" font-weight="500" class="muted num" text-anchor="end">67.2M (0%)</text>
<text x="32" y="458" font-size="12" font-weight="500" class="text2" text-anchor="start">Openclaw</text>
<rect x="104" y="448" width="232" height="10" rx="3" class="track"/>
<rect x="104" y="448" width="2.0" height="10" rx="3" fill="#8b949e" opacity="0.9"/>
<text x="432" y="458" font-size="11" font-weight="500" class="muted num" text-anchor="end">35.2M (0%)</text>
<text x="32" y="484" font-size="12" font-weight="500" class="text2" text-anchor="start">Lmstudio</text>
<rect x="104" y="474" width="232" height="10" rx="3" class="track"/>
<rect x="104" y="474" width="2.0" height="10" rx="3" fill="#8b949e" opacity="0.9"/>
<text x="432" y="484" font-size="11" font-weight="500" class="muted num" text-anchor="end">411K (0%)</text>
<text x="32" y="510" font-size="12" font-weight="500" class="text2" text-anchor="start">Pi-cpamp</text>
<rect x="104" y="500" width="232" height="10" rx="3" class="track"/>
<rect x="104" y="500" width="2.0" height="10" rx="3" fill="#8b949e" opacity="0.9"/>
<text x="432" y="510" font-size="11" font-weight="500" class="muted num" text-anchor="end">30K (0%)</text>
<text x="32" y="536" font-size="12" font-weight="500" class="text2" text-anchor="start">Gemini</text>
<rect x="104" y="526" width="232" height="10" rx="3" class="track"/>
<rect x="104" y="526" width="2.0" height="10" rx="3" fill="#4285F4" opacity="0.9"/>
<text x="432" y="536" font-size="11" font-weight="500" class="muted num" text-anchor="end">6K (0%)</text>
<text x="32" y="562" font-size="12" font-weight="500" class="text2" text-anchor="start">Antigravity</text>
<rect x="104" y="552" width="232" height="10" rx="3" class="track"/>
<rect x="104" y="552" width="2.0" height="10" rx="3" fill="#8b949e" opacity="0.9"/>
<text x="432" y="562" font-size="11" font-weight="500" class="muted num" text-anchor="end">226 (0%)</text>
<text x="460" y="328" font-size="12" font-weight="500" class="text2" text-anchor="start">GLM-5.3-Flash</text>
<rect x="586" y="318" width="198" height="10" rx="3" class="track"/>
<rect x="586" y="318" width="48.7" height="10" rx="3" fill="#f59e0b" opacity="0.9"/>
<text x="868" y="328" font-size="11" font-weight="500" class="muted num" text-anchor="end">13.9B (25%)</text>
<text x="460" y="354" font-size="12" font-weight="500" class="text2" text-anchor="start">GPT-5.6 Sol</text>
<rect x="586" y="344" width="198" height="10" rx="3" class="track"/>
<rect x="586" y="344" width="48.6" height="10" rx="3" fill="#f59e0b" opacity="0.9"/>
<text x="868" y="354" font-size="11" font-weight="500" class="muted num" text-anchor="end">13.8B (25%)</text>
<text x="460" y="380" font-size="12" font-weight="500" class="text2" text-anchor="start">DeepSeek V4 Flash</text>
<rect x="586" y="370" width="198" height="10" rx="3" class="track"/>
<rect x="586" y="370" width="28.1" height="10" rx="3" fill="#f59e0b" opacity="0.9"/>
<text x="868" y="380" font-size="11" font-weight="500" class="muted num" text-anchor="end">8.0B (14%)</text>
<text x="460" y="406" font-size="12" font-weight="500" class="text2" text-anchor="start">GPT-5.6 Luna</text>
<rect x="586" y="396" width="198" height="10" rx="3" class="track"/>
<rect x="586" y="396" width="22.8" height="10" rx="3" fill="#f59e0b" opacity="0.9"/>
<text x="868" y="406" font-size="11" font-weight="500" class="muted num" text-anchor="end">6.5B (12%)</text>
<text x="460" y="432" font-size="12" font-weight="500" class="text2" text-anchor="start">unknown</text>
<rect x="586" y="422" width="198" height="10" rx="3" class="track"/>
<rect x="586" y="422" width="16.1" height="10" rx="3" fill="#f59e0b" opacity="0.9"/>
<text x="868" y="432" font-size="11" font-weight="500" class="muted num" text-anchor="end">4.6B (8%)</text>
<text x="460" y="458" font-size="12" font-weight="500" class="text2" text-anchor="start">MiniMax M2.7</text>
<rect x="586" y="448" width="198" height="10" rx="3" class="track"/>
<rect x="586" y="448" width="12.9" height="10" rx="3" fill="#f59e0b" opacity="0.9"/>
<text x="868" y="458" font-size="11" font-weight="500" class="muted num" text-anchor="end">3.7B (7%)</text>
<line x1="32" y1="496" x2="868" y2="496" stroke="#21262d" stroke-width="1"/>
<text x="32" y="514" font-size="11" font-weight="600" class="muted" letter-spacing="2">使用趋势</text>
<circle cx="831.3" cy="513" r="5" fill="#fbbf24" stroke="#0d1117" stroke-width="1.2"/>
<text x="840.3" y="514" font-size="10" font-weight="500" class="muted">峰值日</text>
<line x1="766.6999999999999" y1="513" x2="784.6999999999999" y2="513" stroke="#fbbf24" stroke-width="2" stroke-linecap="round"/>
<text x="788.6999999999999" y="514" font-size="10" font-weight="500" class="muted">7日均值</text>
<rect x="707.0999999999999" y="508" width="10" height="10" rx="1" fill="#f59e0b"/>
<text x="721.0999999999999" y="514" font-size="10" font-weight="500" class="muted">每日用量</text>
<line x1="32" y1="603.0" x2="868" y2="603.0" stroke="#57606a" stroke-width="1" opacity="0.35"/>
<line x1="32" y1="578.0" x2="868" y2="578.0" stroke="#57606a" stroke-width="1" opacity="0.35"/>
<line x1="32" y1="553.0" x2="868" y2="553.0" stroke="#57606a" stroke-width="1" opacity="0.35"/>
<line x1="32" y1="628" x2="868" y2="628" stroke="#21262d" stroke-width="1"/>
<defs><linearGradient id="tgd" x1="0" y1="0" x2="0" y2="1"><stop offset="0" stop-color="#f59e0b" stop-opacity="0.45"/><stop offset="1" stop-color="#f59e0b" stop-opacity="0.06"/></linearGradient></defs>
<rect x="50.4" y="626.6" width="20.8" height="1.4" rx="1" fill="url(#tgd)"/>
<rect x="79.3" y="627.3" width="20.8" height="0.7" rx="1" fill="url(#tgd)"/>
<rect x="108.1" y="598.6" width="20.8" height="29.4" rx="1" fill="url(#tgd)"/>
<rect x="136.9" y="625.8" width="20.8" height="2.2" rx="1" fill="url(#tgd)"/>
<rect x="165.8" y="627.9" width="20.8" height="0.1" rx="1" fill="url(#tgd)"/>
<rect x="194.6" y="617.6" width="20.8" height="10.4" rx="1" fill="url(#tgd)"/>
<rect x="223.4" y="625.6" width="20.8" height="2.4" rx="1" fill="url(#tgd)"/>
<rect x="252.2" y="621.6" width="20.8" height="6.4" rx="1" fill="url(#tgd)"/>
<rect x="281.1" y="626.8" width="20.8" height="1.2" rx="1" fill="url(#tgd)"/>
<rect x="309.9" y="619.1" width="20.8" height="8.9" rx="1" fill="url(#tgd)"/>
<rect x="338.7" y="627.8" width="20.8" height="0.2" rx="1" fill="url(#tgd)"/>
<rect x="396.4" y="604.8" width="20.8" height="23.2" rx="1" fill="url(#tgd)"/>
<rect x="425.2" y="578.0" width="20.8" height="50.0" rx="1" fill="url(#tgd)"/>
<rect x="454.0" y="579.2" width="20.8" height="48.8" rx="1" fill="url(#tgd)"/>
<rect x="482.9" y="586.5" width="20.8" height="41.5" rx="1" fill="url(#tgd)"/>
<rect x="511.7" y="558.8" width="20.8" height="69.2" rx="1" fill="url(#tgd)"/>
<rect x="540.5" y="579.8" width="20.8" height="48.2" rx="1" fill="url(#tgd)"/>
<rect x="569.3" y="586.1" width="20.8" height="41.9" rx="1" fill="url(#tgd)"/>
<rect x="598.2" y="598.6" width="20.8" height="29.4" rx="1" fill="url(#tgd)"/>
<rect x="627.0" y="548.0" width="20.8" height="80.0" rx="1" fill="url(#tgd)"/>
<rect x="655.8" y="543.0" width="20.8" height="85.0" rx="1" fill="url(#tgd)"/>
<rect x="684.7" y="554.1" width="20.8" height="73.9" rx="1" fill="url(#tgd)"/>
<rect x="713.5" y="555.0" width="20.8" height="73.0" rx="1" fill="url(#tgd)"/>
<rect x="742.3" y="551.4" width="20.8" height="76.6" rx="1" fill="url(#tgd)"/>
<rect x="771.1" y="531.8" width="20.8" height="96.2" rx="1" fill="#fbbf24"/>
<rect x="800.0" y="553.4" width="20.8" height="74.6" rx="1" fill="url(#tgd)"/>
<rect x="828.8" y="580.4" width="20.8" height="47.6" rx="1" fill="url(#tgd)"/>
<rect x="857.6" y="540.2" width="10.4" height="87.8" rx="1" fill="url(#tgd)"/>
<polyline points="60.8,626.6 89.7,627.0 118.5,617.5 147.3,619.6 176.1,621.2 205.0,620.6 233.8,621.3 262.6,620.6 291.4,620.6 320.3,623.5 349.1,623.8 406.8,620.5 435.6,614.8 464.4,608.2 493.2,603.1 522.1,593.4 550.9,587.8 579.7,581.9 608.6,581.0 637.4,576.7 666.2,571.5 695.0,566.9 723.9,566.4 752.7,562.3 781.5,554.6 810.3,548.1 839.2,552.7 868.0,552.3" fill="none" stroke="#fbbf24" stroke-width="2" stroke-linejoin="round" stroke-linecap="round" opacity="0.9"/>
<circle cx="781.5" cy="531.8" r="4" fill="#fbbf24" stroke="#0d1117" stroke-width="2"/>
<text x="773.5" y="522.8" font-size="10" font-weight="600" class="text2" text-anchor="end">9/17 · 1.4B</text>
<line x1="89.7" y1="628" x2="89.7" y2="633" stroke="#57606a" stroke-width="1" opacity="0.5"/>
<text x="89.7" y="646" font-size="9.5" font-weight="500" class="faint" text-anchor="middle">8/24</text>
<line x1="291.4" y1="628" x2="291.4" y2="633" stroke="#57606a" stroke-width="1" opacity="0.5"/>
<text x="291.4" y="646" font-size="9.5" font-weight="500" class="faint" text-anchor="middle">8/31</text>
<line x1="493.2" y1="628" x2="493.2" y2="633" stroke="#57606a" stroke-width="1" opacity="0.5"/>
<text x="493.2" y="646" font-size="9.5" font-weight="500" class="faint" text-anchor="middle">9/7</text>
<line x1="695.0" y1="628" x2="695.0" y2="633" stroke="#57606a" stroke-width="1" opacity="0.5"/>
<text x="695.0" y="646" font-size="9.5" font-weight="500" class="faint" text-anchor="middle">9/14</text>
<circle cx="54.0" cy="663" r="3.5" fill="#fbbf24"/>
<text x="64.0" y="668" font-size="9.5" font-weight="600" class="faint" letter-spacing="1.5">输入</text>
<text x="64.0" y="690" font-size="15" font-weight="700" class="text num">4.3B<tspan font-size="11" font-weight="500" class="muted"> · 7.7%</tspan></text>
<line x1="241.0" y1="662" x2="241.0" y2="694" stroke="#21262d" stroke-width="1"/>
<circle cx="263.0" cy="663" r="3.5" fill="#f59e0b"/>
<text x="273.0" y="668" font-size="9.5" font-weight="600" class="faint" letter-spacing="1.5">缓存读</text>
<text x="273.0" y="690" font-size="15" font-weight="700" class="text num">51.6B<tspan font-size="11" font-weight="500" class="muted"> · 91.7%</tspan></text>
<line x1="450.0" y1="662" x2="450.0" y2="694" stroke="#21262d" stroke-width="1"/>
<circle cx="472.0" cy="663" r="3.5" fill="#fde68a"/>
<text x="482.0" y="668" font-size="9.5" font-weight="600" class="faint" letter-spacing="1.5">输出</text>
<text x="482.0" y="690" font-size="15" font-weight="700" class="text num">191.8M<tspan font-size="11" font-weight="500" class="muted"> · 0.3%</tspan></text>
<line x1="659.0" y1="662" x2="659.0" y2="694" stroke="#21262d" stroke-width="1"/>
<circle cx="681.0" cy="663" r="3.5" fill="#8b949e"/>
<text x="691.0" y="668" font-size="9.5" font-weight="600" class="faint" letter-spacing="1.5">缓存写</text>
<text x="691.0" y="690" font-size="15" font-weight="700" class="text num">155.9M<tspan font-size="11" font-weight="500" class="muted"> · 0.3%</tspan></text>
<line x1="32" y1="706" x2="868" y2="706" stroke="#21262d" stroke-width="1"/>
<text x="32" y="734" font-size="10.5" font-weight="400" class="muted num" text-anchor="start">输入 4.3B · 输出 191.8M · 缓存 92% · 359K 对话</text>
<text x="868" y="734" font-size="10.5" font-weight="400" class="faint" text-anchor="end">更新于 2026-09-20</text>
</svg>
